<svg xmlns="http://www.w3.org/2000/svg" viewBox="0 0 1010 585" width="1010" height="585" role="img" aria-label="The field on one page"><style>
 :root{--ink:#111418;--mut:#5b6672;--line:#c3ccd4;--bg:#ffffff;--a:#2f6f9f;--b:#7a5ea8;--c:#a8563e;--d:#3f7d57;--warn:#b5462f;--fill:#eef3f7;--fill2:#f4f1f8}
 @media (prefers-color-scheme:dark){:root{--ink:#e8ecef;--mut:#9aa6b2;--line:#3d4750;--bg:#12161a;--a:#6fb0dc;--b:#b295d8;--c:#dd9376;--d:#7fc09a;--warn:#e88a72;--fill:#1b232a;--fill2:#221e2b}}
 text{font-family:ui-sans-serif,system-ui,-apple-system,"Segoe UI",Roboto,sans-serif;fill:var(--ink)}
 .t{font-size:17px;font-weight:600}.s{font-size:12.5px;fill:var(--mut)}.l{font-size:12.5px}
 .n{font-size:11px;fill:var(--mut)}.h{font-size:13px;font-weight:600}
 .k{font-size:10.5px;fill:var(--mut);font-family:ui-monospace,SFMono-Regular,Menlo,monospace}
 .box{fill:var(--fill);stroke:var(--line);stroke-width:1}
 .ghost{fill:none;stroke:var(--line);stroke-width:1;stroke-dasharray:3 3}
 .ed{stroke:var(--mut);fill:none;opacity:.55}.tree{stroke:var(--line);fill:none;stroke-width:1.2}
 .xl{fill:none;stroke:var(--mut);stroke-width:1.1;stroke-dasharray:5 4;opacity:.75}
 .xt{fill:none;stroke:var(--mut);stroke-width:1.1;stroke-dasharray:6 3 2 3;opacity:.85}
 .xw{font-size:9.5px;fill:var(--mut);font-style:italic}
</style><rect width="1010" height="585" fill="var(--bg)"/><text class="t" x="24" y="28">Figure 1. The field on one page</text><text class="s" x="24" y="48">Every node is a count over the 112 method papers in the corpus. Dashed nodes are reporting gaps, not choices.</text><text class="s" x="24" y="64">Paradigm counts exceed 112 because a method may use several. Recomputed from corpus/rows at draw time.</text><text class="h" x="113.0" y="80" text-anchor="middle">data source</text><rect class="box" x="24" y="92" width="178" height="49" rx="3"/><text class="l" x="32" y="107">human data named</text><text class="n" x="194" y="107" text-anchor="end">53</text><rect class="box" x="24" y="150" width="178" height="47" rx="3"/><text class="l" x="32" y="165">no demonstrations</text><text class="n" x="194" y="165" text-anchor="end">50</text><rect class="ghost" x="24" y="206" width="178" height="24" rx="3"/><text class="l" x="32" y="221">not stated</text><text class="n" x="194" y="221" text-anchor="end">9</text><text class="h" x="313.0" y="80" text-anchor="middle">embodiment</text><rect class="box" x="224" y="92" width="178" height="51" rx="3"/><text class="l" x="232" y="107">one hand</text><text class="n" x="394" y="107" text-anchor="end">56</text><rect class="box" x="224" y="152" width="178" height="49" rx="3"/><text class="l" x="232" y="167">two hands</text><text class="n" x="394" y="167" text-anchor="end">53</text><rect class="ghost" x="224" y="210" width="178" height="24" rx="3"/><text class="l" x="232" y="225">not stated</text><text class="n" x="394" y="225" text-anchor="end">3</text><text class="h" x="513.0" y="80" text-anchor="middle">simulator</text><rect class="ghost" x="424" y="92" width="178" height="39" rx="3"/><text class="l" x="432" y="107">not stated</text><text class="n" x="594" y="107" text-anchor="end">37</text><rect class="box" x="424" y="140" width="178" height="38" rx="3"/><text class="l" x="432" y="155">Isaac Gym</text><text class="n" x="594" y="155" text-anchor="end">35</text><rect class="box" x="424" y="187" width="178" height="26" rx="3"/><text class="l" x="432" y="202">MuJoCo</text><text class="n" x="594" y="202" text-anchor="end">16</text><rect class="box" x="424" y="222" width="178" height="24" rx="3"/><text class="l" x="432" y="237">Isaac Lab / Sim</text><text class="n" x="594" y="237" text-anchor="end">7</text><rect class="box" x="424" y="255" width="178" height="24" rx="3"/><text class="l" x="432" y="270">other</text><text class="n" x="594" y="270" text-anchor="end">5</text><rect class="box" x="424" y="288" width="178" height="24" rx="3"/><text class="l" x="432" y="303">SAPIEN</text><text class="n" x="594" y="303" text-anchor="end">4</text><rect class="box" x="424" y="321" width="178" height="24" rx="3"/><text class="l" x="432" y="336">no simulator</text><text class="n" x="594" y="336" text-anchor="end">3</text><text class="h" x="713.0" y="80" text-anchor="middle">training paradigm</text><rect class="box" x="624" y="92" width="178" height="49" rx="3"/><text class="l" x="632" y="107">RL</text><text class="n" x="794" y="107" text-anchor="end">53</text><rect class="box" x="624" y="150" width="178" height="32" rx="3"/><text class="l" x="632" y="165">BC</text><text class="n" x="794" y="165" text-anchor="end">27</text><rect class="box" x="624" y="191" width="178" height="30" rx="3"/><text class="l" x="632" y="206">distillation</text><text class="n" x="794" y="206" text-anchor="end">23</text><rect class="box" x="624" y="230" width="178" height="27" rx="3"/><text class="l" x="632" y="245">VLA</text><text class="n" x="794" y="245" text-anchor="end">18</text><rect class="box" x="624" y="266" width="178" height="24" rx="3"/><text class="l" x="632" y="281">teleop-system</text><text class="n" x="794" y="281" text-anchor="end">14</text><rect class="box" x="624" y="299" width="178" height="24" rx="3"/><text class="l" x="632" y="314">diffusion</text><text class="n" x="794" y="314" text-anchor="end">14</text><rect class="box" x="624" y="332" width="178" height="24" rx="3"/><text class="l" x="632" y="347">data-collection</text><text class="n" x="794" y="347" text-anchor="end">10</text><text class="h" x="913.0" y="80" text-anchor="middle">evaluation</text><rect class="box" x="824" y="92" width="178" height="72" rx="3"/><text class="l" x="832" y="107">real robot</text><text class="n" x="994" y="107" text-anchor="end">89</text><rect class="box" x="824" y="173" width="178" height="30" rx="3"/><text class="l" x="832" y="188">simulation only</text><text class="n" x="994" y="188" text-anchor="end">23</text><rect class="box" x="824" y="212" width="178" height="24" rx="3"/><text class="l" x="832" y="227">penetration addressed</text><text class="n" x="994" y="227" text-anchor="end">11</text><rect class="box" x="824" y="245" width="178" height="69" rx="3"/><text class="l" x="832" y="260">penetration not addressed</text><text class="n" x="994" y="260" text-anchor="end">85</text><path class="ed" d="M202,116.5 C218,116.5 208,117.5 224,117.5" stroke-width="2.8"/><path class="ed" d="M202,116.5 C218,116.5 208,176.5 224,176.5" stroke-width="2.7"/><path class="ed" d="M202,116.5 C218,116.5 208,222.0 224,222.0" stroke-width="1.3"/><path class="ed" d="M202,173.5 C218,173.5 208,117.5 224,117.5" stroke-width="2.7"/><path class="ed" d="M202,173.5 C218,173.5 208,176.5 224,176.5" stroke-width="2.6"/><path class="ed" d="M202,173.5 C218,173.5 208,222.0 224,222.0" stroke-width="1.3"/><path class="ed" d="M202,218.0 C218,218.0 208,117.5 224,117.5" stroke-width="1.4"/><path class="ed" d="M202,218.0 C218,218.0 208,176.5 224,176.5" stroke-width="1.3"/><path class="ed" d="M202,218.0 C218,218.0 208,222.0 224,222.0" stroke-width="0.6"/><path class="ed" d="M402,117.5 C418,117.5 408,111.5 424,111.5" stroke-width="2.2"/><path class="ed" d="M402,117.5 C418,117.5 408,159.0 424,159.0" stroke-width="2.2"/><path class="ed" d="M402,117.5 C418,117.5 408,200.0 424,200.0" stroke-width="1.5"/><path class="ed" d="M402,117.5 C418,117.5 408,234.0 424,234.0" stroke-width="1.4"/><path class="ed" d="M402,117.5 C418,117.5 408,267.0 424,267.0" stroke-width="1.4"/><path class="ed" d="M402,117.5 C418,117.5 408,300.0 424,300.0" stroke-width="1.4"/><path class="ed" d="M402,117.5 C418,117.5 408,333.0 424,333.0" stroke-width="1.4"/><path class="ed" d="M402,176.5 C418,176.5 408,111.5 424,111.5" stroke-width="2.1"/><path class="ed" d="M402,176.5 C418,176.5 408,159.0 424,159.0" stroke-width="2.1"/><path class="ed" d="M402,176.5 C418,176.5 408,200.0 424,200.0" stroke-width="1.4"/><path class="ed" d="M402,176.5 C418,176.5 408,234.0 424,234.0" stroke-width="1.3"/><path class="ed" d="M402,176.5 C418,176.5 408,267.0 424,267.0" stroke-width="1.3"/><path class="ed" d="M402,176.5 C418,176.5 408,300.0 424,300.0" stroke-width="1.3"/><path class="ed" d="M402,176.5 C418,176.5 408,333.0 424,333.0" stroke-width="1.3"/><path class="ed" d="M402,222.0 C418,222.0 408,111.5 424,111.5" stroke-width="1.0"/><path class="ed" d="M402,222.0 C418,222.0 408,159.0 424,159.0" stroke-width="1.0"/><path class="ed" d="M402,222.0 C418,222.0 408,200.0 424,200.0" stroke-width="0.7"/><path class="ed" d="M402,222.0 C418,222.0 408,234.0 424,234.0" stroke-width="0.6"/><path class="ed" d="M402,222.0 C418,222.0 408,267.0 424,267.0" stroke-width="0.6"/><path class="ed" d="M402,222.0 C418,222.0 408,300.0 424,300.0" stroke-width="0.6"/><path class="ed" d="M402,222.0 C418,222.0 408,333.0 424,333.0" stroke-width="0.6"/><path class="ed" d="M602,111.5 C618,111.5 608,116.5 624,116.5" stroke-width="2.1"/><path class="ed" d="M602,111.5 C618,111.5 608,166.0 624,166.0" stroke-width="1.4"/><path class="ed" d="M602,111.5 C618,111.5 608,206.0 624,206.0" stroke-width="1.3"/><path class="ed" d="M602,111.5 C618,111.5 608,243.5 624,243.5" stroke-width="1.2"/><path class="ed" d="M602,111.5 C618,111.5 608,278.0 624,278.0" stroke-width="1.0"/><path class="ed" d="M602,111.5 C618,111.5 608,311.0 624,311.0" stroke-width="1.0"/><path class="ed" d="M602,111.5 C618,111.5 608,344.0 624,344.0" stroke-width="1.0"/><path class="ed" d="M602,159.0 C618,159.0 608,116.5 624,116.5" stroke-width="2.1"/><path class="ed" d="M602,159.0 C618,159.0 608,166.0 624,166.0" stroke-width="1.4"/><path class="ed" d="M602,159.0 C618,159.0 608,206.0 624,206.0" stroke-width="1.3"/><path class="ed" d="M602,159.0 C618,159.0 608,243.5 624,243.5" stroke-width="1.1"/><path class="ed" d="M602,159.0 C618,159.0 608,278.0 624,278.0" stroke-width="1.0"/><path class="ed" d="M602,159.0 C618,159.0 608,311.0 624,311.0" stroke-width="1.0"/><path class="ed" d="M602,159.0 C618,159.0 608,344.0 624,344.0" stroke-width="1.0"/><path class="ed" d="M602,200.0 C618,200.0 608,116.5 624,116.5" stroke-width="1.4"/><path class="ed" d="M602,200.0 C618,200.0 608,166.0 624,166.0" stroke-width="0.9"/><path class="ed" d="M602,200.0 C618,200.0 608,206.0 624,206.0" stroke-width="0.9"/><path class="ed" d="M602,200.0 C618,200.0 608,243.5 624,243.5" stroke-width="0.8"/><path class="ed" d="M602,200.0 C618,200.0 608,278.0 624,278.0" stroke-width="0.7"/><path class="ed" d="M602,200.0 C618,200.0 608,311.0 624,311.0" stroke-width="0.7"/><path class="ed" d="M602,200.0 C618,200.0 608,344.0 624,344.0" stroke-width="0.7"/><path class="ed" d="M602,234.0 C618,234.0 608,116.5 624,116.5" stroke-width="1.3"/><path class="ed" d="M602,234.0 C618,234.0 608,166.0 624,166.0" stroke-width="0.9"/><path class="ed" d="M602,234.0 C618,234.0 608,206.0 624,206.0" stroke-width="0.8"/><path class="ed" d="M602,234.0 C618,234.0 608,243.5 624,243.5" stroke-width="0.7"/><path class="ed" d="M602,234.0 C618,234.0 608,278.0 624,278.0" stroke-width="0.6"/><path class="ed" d="M602,234.0 C618,234.0 608,311.0 624,311.0" stroke-width="0.6"/><path class="ed" d="M602,234.0 C618,234.0 608,344.0 624,344.0" stroke-width="0.6"/><path class="ed" d="M602,267.0 C618,267.0 608,116.5 624,116.5" stroke-width="1.3"/><path class="ed" d="M602,267.0 C618,267.0 608,166.0 624,166.0" stroke-width="0.9"/><path class="ed" d="M602,267.0 C618,267.0 608,206.0 624,206.0" stroke-width="0.8"/><path class="ed" d="M602,267.0 C618,267.0 608,243.5 624,243.5" stroke-width="0.7"/><path class="ed" d="M602,267.0 C618,267.0 608,278.0 624,278.0" stroke-width="0.6"/><path class="ed" d="M602,267.0 C618,267.0 608,311.0 624,311.0" stroke-width="0.6"/><path class="ed" d="M602,267.0 C618,267.0 608,344.0 624,344.0" stroke-width="0.6"/><path class="ed" d="M602,300.0 C618,300.0 608,116.5 624,116.5" stroke-width="1.3"/><path class="ed" d="M602,300.0 C618,300.0 608,166.0 624,166.0" stroke-width="0.9"/><path class="ed" d="M602,300.0 C618,300.0 608,206.0 624,206.0" stroke-width="0.8"/><path class="ed" d="M602,300.0 C618,300.0 608,243.5 624,243.5" stroke-width="0.7"/><path class="ed" d="M602,300.0 C618,300.0 608,278.0 624,278.0" stroke-width="0.6"/><path class="ed" d="M602,300.0 C618,300.0 608,311.0 624,311.0" stroke-width="0.6"/><path class="ed" d="M602,300.0 C618,300.0 608,344.0 624,344.0" stroke-width="0.6"/><path class="ed" d="M602,333.0 C618,333.0 608,116.5 624,116.5" stroke-width="1.3"/><path class="ed" d="M602,333.0 C618,333.0 608,166.0 624,166.0" stroke-width="0.9"/><path class="ed" d="M602,333.0 C618,333.0 608,206.0 624,206.0" stroke-width="0.8"/><path class="ed" d="M602,333.0 C618,333.0 608,243.5 624,243.5" stroke-width="0.7"/><path class="ed" d="M602,333.0 C618,333.0 608,278.0 624,278.0" stroke-width="0.6"/><path class="ed" d="M602,333.0 C618,333.0 608,311.0 624,311.0" stroke-width="0.6"/><path class="ed" d="M602,333.0 C618,333.0 608,344.0 624,344.0" stroke-width="0.6"/><path class="ed" d="M802,116.5 C818,116.5 808,128.0 824,128.0" stroke-width="3.2"/><path class="ed" d="M802,116.5 C818,116.5 808,188.0 824,188.0" stroke-width="1.6"/><path class="ed" d="M802,116.5 C818,116.5 808,224.0 824,224.0" stroke-width="1.3"/><path class="ed" d="M802,116.5 C818,116.5 808,279.5 824,279.5" stroke-width="3.2"/><path class="ed" d="M802,166.0 C818,166.0 808,128.0 824,128.0" stroke-width="2.6"/><path class="ed" d="M802,166.0 C818,166.0 808,188.0 824,188.0" stroke-width="1.1"/><path class="ed" d="M802,166.0 C818,166.0 808,224.0 824,224.0" stroke-width="0.9"/><path class="ed" d="M802,166.0 C818,166.0 808,279.5 824,279.5" stroke-width="2.5"/><path class="ed" d="M802,206.0 C818,206.0 808,128.0 824,128.0" stroke-width="2.4"/><path class="ed" d="M802,206.0 C818,206.0 808,188.0 824,188.0" stroke-width="1.0"/><path class="ed" d="M802,206.0 C818,206.0 808,224.0 824,224.0" stroke-width="0.8"/><path class="ed" d="M802,206.0 C818,206.0 808,279.5 824,279.5" stroke-width="2.3"/><path class="ed" d="M802,243.5 C818,243.5 808,128.0 824,128.0" stroke-width="2.2"/><path class="ed" d="M802,243.5 C818,243.5 808,188.0 824,188.0" stroke-width="0.9"/><path class="ed" d="M802,243.5 C818,243.5 808,224.0 824,224.0" stroke-width="0.7"/><path class="ed" d="M802,243.5 C818,243.5 808,279.5 824,279.5" stroke-width="2.1"/><path class="ed" d="M802,278.0 C818,278.0 808,128.0 824,128.0" stroke-width="1.9"/><path class="ed" d="M802,278.0 C818,278.0 808,188.0 824,188.0" stroke-width="0.8"/><path class="ed" d="M802,278.0 C818,278.0 808,224.0 824,224.0" stroke-width="0.6"/><path class="ed" d="M802,278.0 C818,278.0 808,279.5 824,279.5" stroke-width="1.8"/><path class="ed" d="M802,311.0 C818,311.0 808,128.0 824,128.0" stroke-width="1.9"/><path class="ed" d="M802,311.0 C818,311.0 808,188.0 824,188.0" stroke-width="0.8"/><path class="ed" d="M802,311.0 C818,311.0 808,224.0 824,224.0" stroke-width="0.6"/><path class="ed" d="M802,311.0 C818,311.0 808,279.5 824,279.5" stroke-width="1.8"/><path class="ed" d="M802,344.0 C818,344.0 808,128.0 824,128.0" stroke-width="1.9"/><path class="ed" d="M802,344.0 C818,344.0 808,188.0 824,188.0" stroke-width="0.8"/><path class="ed" d="M802,344.0 C818,344.0 808,224.0 824,224.0" stroke-width="0.6"/><path class="ed" d="M802,344.0 C818,344.0 808,279.5 824,279.5" stroke-width="1.8"/><text class="s" x="24" y="422">The routes converge. The heaviest single path is no demonstrations, one hand, Isaac Gym,</text><text class="s" x="24" y="438">reinforcement learning, real robot. Whatever enters on the left, almost everything leaves through a</text><text class="s" x="24" y="454">GPU simulator and arrives at a real robot without contact quality ever being measured.</text></svg>